<?xml version="1.0" encoding="utf-8"?>
<!-- Generator: Adobe Illustrator 19.1.0, SVG Export Plug-In . SVG Version: 6.00 Build 0)  -->
<svg version="1.1" id="Layer_1" xmlns="http://www.w3.org/2000/svg" xmlns:xlink="http://www.w3.org/1999/xlink" x="0px" y="0px"
	 viewBox="0 0 345.8 290" style="enable-background:new 0 0 345.8 290;" xml:space="preserve">
<metadata><?xpacket begin="﻿" id="W5M0MpCehiHzreSzNTczkc9d"?>
<x:xmpmeta xmlns:x="adobe:ns:meta/" x:xmptk="Adobe XMP Core 5.6-c067 79.157747, 2015/03/30-23:40:42        ">
   <rdf:RDF xmlns:rdf="http://www.w3.org/1999/02/22-rdf-syntax-ns#">
      <rdf:Description rdf:about=""/>
   </rdf:RDF>
</x:xmpmeta>
                                                                                                    
                                                                                                    
                                                                                                    
                                                                                                    
                                                                                                    
                                                                                                    
                                                                                                    
                                                                                                    
                                                                                                    
                                                                                                    
                                                                                                    
                                                                                                    
                                                                                                    
                                                                                                    
                                                                                                    
                                                                                                    
                                                                                                    
                                                                                                    
                                                                                                    
                                                                                                    
                           
<?xpacket end="w"?></metadata>
<style type="text/css">
	.st0{fill:none;stroke:#221F26;stroke-width:1.3421;stroke-miterlimit:10;}
	.st1{fill:none;stroke:#221F26;stroke-width:1.342;stroke-miterlimit:10;}
	.st2{fill:#221F26;}
</style>
<g>
	<g>
		<path class="st0" d="M336.8,226.9c0-0.2-0.2-0.4-0.4-0.4l-137.6,0c-0.4,2.2-2.3,3.8-4.6,3.8h-45.3c-2.3,0-4.2-1.6-4.6-3.8
			l-137.6,0c-0.2,0-0.4,0.2-0.4,0.4v4.7c0,0.2,0.2,0.5,0.2,0.5s3.8,4,15.2,4h299.7c11.4,0,15.2-4,15.2-4l0,0
			c0.1-0.1,0.2-0.3,0.2-0.5V226.9z"/>
		<path class="st1" d="M305.1,226.3V61.1c0-4.8-4-8.8-8.8-8.8H46.9c-4.8,0-8.8,4-8.8,8.8v165.2 M289.6,213.7v1.4H53.8v-1.4V67.8
			h235.8V213.7z"/>
	</g>
	<circle class="st2" cx="171.6" cy="60.5" r="1.9"/>
</g>
</svg>
